<svg width="15" height="16" viewBox="0 0 15 16" fill="none" xmlns="http://www.w3.org/2000/svg">
<path d="M10.1805 4.75168L5.36202 9.51298C5.28066 9.59062 5.21576 9.68349 5.17111 9.78618C5.12646 9.88887 5.10296 9.99931 5.10198 10.1111C5.10099 10.2228 5.12255 10.3337 5.16538 10.4371C5.20822 10.5405 5.27148 10.6345 5.35146 10.7135C5.43145 10.7926 5.52657 10.8551 5.63127 10.8974C5.73597 10.9397 5.84815 10.961 5.96126 10.96C6.07438 10.959 6.18617 10.9358 6.2901 10.8917C6.39404 10.8476 6.48805 10.7835 6.56663 10.7031L11.3859 5.94263C11.8653 5.46906 12.1346 4.82677 12.1346 4.15704C12.1346 3.48731 11.8653 2.84501 11.3859 2.37144C10.9066 1.89787 10.2565 1.63183 9.57858 1.63183C8.9007 1.63183 8.25058 1.89787 7.77124 2.37144L2.95195 7.13275C2.54821 7.52171 2.22665 7.986 2.00595 8.49868C1.78524 9.01138 1.66977 9.56226 1.66624 10.1194C1.6627 10.6765 1.77118 11.2288 1.98536 11.7442C2.19955 12.2595 2.51519 12.7278 2.91397 13.1217C3.31275 13.5156 3.78673 13.8274 4.30842 14.0389C4.83011 14.2505 5.38912 14.3576 5.95303 14.354C6.51693 14.3504 7.07451 14.2363 7.59341 14.0181C8.11232 13.8 8.58222 13.4823 8.97585 13.0833L13.7951 8.32286L14.9998 9.51298L10.1805 14.2743C9.62668 14.8214 8.96925 15.2554 8.24569 15.5515C7.52214 15.8476 6.74664 16 5.96348 16C5.18031 16 4.40481 15.8476 3.68126 15.5515C2.95771 15.2554 2.30027 14.8214 1.74649 14.2743C1.19271 13.7272 0.753422 13.0776 0.453717 12.3628C0.154012 11.6479 -0.000244146 10.8818 -0.000244141 10.108C-0.000244135 9.33429 0.154012 8.56813 0.453717 7.85328C0.753422 7.13844 1.19271 6.48891 1.74649 5.94179L6.56663 1.18133C7.37 0.414747 8.44598 -0.00942925 9.56283 0.000159086C10.6797 0.00974743 11.748 0.452333 12.5378 1.23259C13.3276 2.01285 13.7755 3.06835 13.7852 4.17176C13.7949 5.27517 13.3656 6.33821 12.5897 7.13191L7.77124 11.8949C7.53384 12.1294 7.25202 12.3154 6.94187 12.4423C6.63171 12.5691 6.29929 12.6344 5.9636 12.6344C5.62791 12.6343 5.29551 12.569 4.98538 12.442C4.67526 12.3151 4.39348 12.129 4.15614 11.8945C3.91879 11.6599 3.73053 11.3815 3.6021 11.0751C3.47368 10.7687 3.4076 10.4402 3.40764 10.1086C3.40767 9.77693 3.47383 9.44853 3.60233 9.14213C3.73084 8.83574 3.91916 8.55735 4.15656 8.32286L8.97585 3.56156L10.1805 4.75168Z" fill="#A3A3A3"/>
</svg>
