<svg width="16" height="16" viewBox="0 0 16 16" fill="none" xmlns="http://www.w3.org/2000/svg">
<path d="M13.3213 8.9526C13.0189 8.39385 12.8437 7.94635 12.8437 7.31254L12.8438 6.37501C12.8438 5.08872 12.3456 3.87385 11.4408 2.95419C10.6655 2.16601 9.66999 1.67419 8.59374 1.53844V0.625008C8.59374 0.27982 8.31393 7.80302e-06 7.96874 7.80302e-06C7.62355 7.80302e-06 7.34374 0.27982 7.34374 0.625008V1.53973C6.78802 1.61098 6.25327 1.77782 5.74806 2.03816C5.44121 2.19629 5.32065 2.57319 5.47877 2.88004C5.58974 3.09532 5.80834 3.21888 6.0349 3.21888C6.13127 3.21888 6.22912 3.19651 6.32068 3.14932C6.81865 2.89273 7.35527 2.75851 7.91584 2.75041H8.0339C9.99718 2.77891 11.5938 4.40407 11.5938 6.37501L11.5937 7.3125C11.5937 8.30391 11.9181 8.98607 12.222 9.54763C12.3351 9.75663 12.5501 9.87522 12.7722 9.87522C12.8726 9.87522 12.9746 9.85094 13.0691 9.79975C13.3727 9.63544 13.4856 9.25613 13.3213 8.9526ZM15.817 14.9331L1.06696 0.18307C0.822871 -0.0610234 0.427121 -0.0610234 0.183058 0.18307C-0.0610039 0.427164 -0.0610351 0.822882 0.183058 1.06694L3.51459 4.39847C3.23534 5.02338 3.09374 5.68816 3.09374 6.37501V7.3125C3.09374 8.14522 2.79146 8.67394 2.40881 9.34332C2.03178 10.0028 1.60446 10.7503 1.38834 11.9034C1.28518 12.4539 1.43112 13.0168 1.78875 13.4477C2.14603 13.8781 2.67181 14.125 3.23118 14.125H6.10587C6.10587 15.1589 6.94699 16 7.98087 16C9.01474 16 9.85587 15.1589 9.85587 14.125H12.7185C12.8768 14.125 13.0323 14.1056 13.1832 14.0671L14.9331 15.8169C14.991 15.8751 15.0599 15.9212 15.1358 15.9526C15.2116 15.984 15.2929 16.0001 15.375 16C15.4571 16.0001 15.5384 15.984 15.6142 15.9526C15.6901 15.9211 15.759 15.8751 15.817 15.8169C16.061 15.5729 16.061 15.1772 15.817 14.9331ZM7.98087 14.75C7.63624 14.75 7.35587 14.4696 7.35587 14.125H8.60587C8.60587 14.4696 8.32552 14.75 7.98087 14.75ZM3.23118 12.875C2.97603 12.875 2.82056 12.7336 2.75059 12.6493C2.68046 12.5648 2.56981 12.3854 2.61699 12.1337C2.79428 11.1877 3.14999 10.5655 3.49399 9.96372C3.91174 9.23297 4.34374 8.47732 4.34374 7.3125V6.37501C4.34374 6.03113 4.39152 5.69482 4.48618 5.3701L11.9911 12.875H3.23118Z" fill="#525252"/>
</svg>
